<?xml version="1.0" encoding="UTF-8"?>
<svg version="1.1" xmlns="http://www.w3.org/2000/svg" width="60" height="48">
<path d="M0 0 C0.99 0 1.98 0 3 0 C3 0.99 3 1.98 3 3 C3.99 3 4.98 3 6 3 C6 2.01 6 1.02 6 0 C6.66 0 7.32 0 8 0 C8 0.99 8 1.98 8 3 C8.804375 3.12375 9.60875 3.2475 10.4375 3.375 C11.283125 3.58125 12.12875 3.7875 13 4 C14.49297212 6.98594424 14.11755228 9.70853624 14 13 C13.67 13.66 13.34 14.32 13 15 C13.99 15.33 14.98 15.66 16 16 C17.11445498 18.22890995 17.16480286 19.53055106 17.1875 22 C17.20167969 22.70125 17.21585938 23.4025 17.23046875 24.125 C17 26 17 26 15 28 C12.67724823 28.40047444 10.34260643 28.7397104 8 29 C8 29.99 8 30.98 8 32 C7.34 32 6.68 32 6 32 C6 27.05 6 22.1 6 17 C5.01 17 4.02 17 3 17 C3 21.95 3 26.9 3 32 C2.01 32 1.02 32 0 32 C0 31.01 0 30.02 0 29 C-1.65 28.67 -3.3 28.34 -5 28 C-4.814375 27.030625 -4.62875 26.06125 -4.4375 25.0625 C-4.293125 24.051875 -4.14875 23.04125 -4 22 C-4.33 21.67 -4.66 21.34 -5 21 C-5.08631874 19.65732587 -5.10706473 18.31025678 -5.09765625 16.96484375 C-5.09443359 16.15595703 -5.09121094 15.34707031 -5.08789062 14.51367188 C-5.07951172 13.66353516 -5.07113281 12.81339844 -5.0625 11.9375 C-5.05798828 11.08349609 -5.05347656 10.22949219 -5.04882812 9.34960938 C-5.03700373 7.23304337 -5.01906769 5.11651315 -5 3 C-3.35 3 -1.7 3 0 3 C0 2.01 0 1.02 0 0 Z M6 6 C7 8 7 8 7 8 Z M1 8 C1 10.64 1 13.28 1 16 C1.33 16 1.66 16 2 16 C2 13.36 2 10.72 2 8 C1.67 8 1.34 8 1 8 Z M4 8 C2.70366379 9.06645115 2.70366379 9.06645115 2.9375 11.5625 C2.958125 12.366875 2.97875 13.17125 3 14 C3.66 14 4.32 14 5 14 C5.33 12.35 5.66 10.7 6 9 C5.34 8.67 4.68 8.34 4 8 Z M1 18 C1 21.96 1 25.92 1 30 C1.33 30 1.66 30 2 30 C2 26.04 2 22.08 2 18 C1.67 18 1.34 18 1 18 Z " fill="#F9F90D" transform="translate(23,5)"/>
<path d="M0 0 C1.32 0 2.64 0 4 0 C5.14654482 2.29308963 5.19729117 3.79909656 5.31640625 6.3515625 C5.35830078 7.20234375 5.40019531 8.053125 5.44335938 8.9296875 C5.48267578 9.81914062 5.52199219 10.70859375 5.5625 11.625 C5.60568359 12.5221875 5.64886719 13.419375 5.69335938 14.34375 C5.79956861 16.56234283 5.90161194 18.7810488 6 21 C7.32 21 8.64 21 10 21 C9.88601335 19.37419034 9.75844341 17.74932843 9.625 16.125 C9.55539063 15.22007813 9.48578125 14.31515625 9.4140625 13.3828125 C9.20431868 10.82058097 9.20431868 10.82058097 7 9 C10 8 10 8 12.125 8.8125 C14 10 14 10 15 12 C15.16796875 13.875 15.16796875 13.875 15.1875 16 C15.20167969 16.70125 15.21585938 17.4025 15.23046875 18.125 C15 20 15 20 13 22 C10.67724823 22.40047444 8.34260643 22.7397104 6 23 C6 23.99 6 24.98 6 26 C5.34 26 4.68 26 4 26 C4 21.05 4 16.1 4 11 C3.01 11 2.02 11 1 11 C1 15.95 1 20.9 1 26 C0.01 26 -0.98 26 -2 26 C-1.835 25.45601562 -1.67 24.91203125 -1.5 24.3515625 C-0.91897961 21.61895097 -0.9410549 19.1675239 -1 16.375 C-1.05431076 10.84888011 -0.67902807 5.48072656 0 0 Z M2 2 C0.70366379 3.06645115 0.70366379 3.06645115 0.9375 5.5625 C0.958125 6.366875 0.97875 7.17125 1 8 C1.66 8 2.32 8 3 8 C3.33 6.35 3.66 4.7 4 3 C3.34 2.67 2.68 2.34 2 2 Z " fill="#D3CC3E" transform="translate(25,11)"/>
<path d="M0 0 C1.32 0 2.64 0 4 0 C4.33 0.99 4.66 1.98 5 3 C5.66 3.66 6.32 4.32 7 5 C6.79852232 7.11551564 6.58437934 9.23092454 6.29296875 11.3359375 C5.79302336 15.88210757 5.9231668 20.43269291 6 25 C4.35 25.33 2.7 25.66 1 26 C-0.06414547 22.80756358 0.18092625 22.07152658 1 19 C0.67 18.67 0.34 18.34 0 18 C-0.08631874 16.65732587 -0.10706473 15.31025678 -0.09765625 13.96484375 C-0.09443359 13.15595703 -0.09121094 12.34707031 -0.08789062 11.51367188 C-0.07951172 10.66353516 -0.07113281 9.81339844 -0.0625 8.9375 C-0.05798828 8.08349609 -0.05347656 7.22949219 -0.04882812 6.34960938 C-0.03700373 4.23304337 -0.01906769 2.11651315 0 0 Z " fill="#F7F710" transform="translate(18,8)"/>
<path d="M0 0 C7.26 0 14.52 0 22 0 C22 1.32 22 2.64 22 4 C14.58165418 4.09377123 7.33763707 4.17402193 0 3 C0 2.01 0 1.02 0 0 Z " fill="#E0DF57" transform="translate(29,38)"/>
<path d="M0 0 C7.26 0 14.52 0 22 0 C22 0.99 22 1.98 22 3 C14.74 3 7.48 3 0 3 C0 2.01 0 1.02 0 0 Z " fill="#E8E347" transform="translate(6,38)"/>
<path d="M0 0 C1.32 0 2.64 0 4 0 C5.38550197 2.77100394 5.1877467 4.9334706 5 8 C4.01 9.485 4.01 9.485 3 11 C2.34 11 1.68 11 1 11 C1 15.95 1 20.9 1 26 C0.01 26 -0.98 26 -2 26 C-1.835 25.45601562 -1.67 24.91203125 -1.5 24.3515625 C-0.91897961 21.61895097 -0.9410549 19.1675239 -1 16.375 C-1.05431076 10.84888011 -0.67902807 5.48072656 0 0 Z M2 2 C0.70366379 3.06645115 0.70366379 3.06645115 0.9375 5.5625 C0.958125 6.366875 0.97875 7.17125 1 8 C1.66 8 2.32 8 3 8 C3.33 6.35 3.66 4.7 4 3 C3.34 2.67 2.68 2.34 2 2 Z " fill="#A8A34F" transform="translate(25,11)"/>
<path d="M0 0 C0 3.3 0 6.6 0 10 C-1.65 9.67 -3.3 9.34 -5 9 C-4.71848913 7.68528432 -4.42446661 6.37324233 -4.125 5.0625 C-3.96257813 4.33160156 -3.80015625 3.60070312 -3.6328125 2.84765625 C-2.93449973 0.80875539 -2.29775298 0 0 0 Z " fill="#F5F30E" transform="translate(23,24)"/>
<path d="M0 0 C0.99 0.33 1.98 0.66 3 1 C3 3.64 3 6.28 3 9 C1.02 9.99 1.02 9.99 -1 11 C-1.14285714 3.57142857 -1.14285714 3.57142857 0 0 Z " fill="#FBFB05" transform="translate(37,22)"/>
<path d="M0 0 C1.32 0 2.64 0 4 0 C4 0.66 4 1.32 4 2 C3.34 2 2.68 2 2 2 C2 5.63 2 9.26 2 13 C2.66 13.33 3.32 13.66 4 14 C3.34 15.32 2.68 16.64 2 18 C1.34 18 0.68 18 0 18 C0 12.06 0 6.12 0 0 Z " fill="#E7E62D" transform="translate(18,8)"/>
<path d="M0 0 C2.97 0 5.94 0 9 0 C9 0.99 9 1.98 9 3 C6.03 3 3.06 3 0 3 C0 2.01 0 1.02 0 0 Z " fill="#E9E63A" transform="translate(29,38)"/>
<path d="M0 0 C1.32 0 2.64 0 4 0 C5.35439668 2.70879335 5.06501451 5.00933268 5 8 C4.67 8 4.34 8 4 8 C3.67 6.35 3.34 4.7 3 3 C2.67 3 2.34 3 2 3 C1.67 4.98 1.34 6.96 1 9 C0.67 9 0.34 9 0 9 C0 6.03 0 3.06 0 0 Z " fill="#C4C259" transform="translate(25,11)"/>
<path d="M0 0 C2.475 0.495 2.475 0.495 5 1 C4.67 1.66 4.34 2.32 4 3 C3.34 3 2.68 3 2 3 C2 4.65 2 6.3 2 8 C1.34 8 0.68 8 0 8 C0 5.36 0 2.72 0 0 Z " fill="#E9E825" transform="translate(20,11)"/>
<path d="M0 0 C0.33 0 0.66 0 1 0 C1 2.64 1 5.28 1 8 C-0.98 8.99 -0.98 8.99 -3 10 C-2.67 8.68 -2.34 7.36 -2 6 C-1.34 6.33 -0.68 6.66 0 7 C0 4.69 0 2.38 0 0 Z " fill="#F4F417" transform="translate(39,23)"/>
<path d="M0 0 C0.33 0.99 0.66 1.98 1 3 C3.01508358 3.73323796 3.01508358 3.73323796 5 4 C3.02 4.66 1.04 5.32 -1 6 C-1 3 -1 3 0 0 Z " fill="#FBFC03" transform="translate(24,6)"/>
</svg>
